<?xml version="1.0" encoding="UTF-8"?>
<!-- Generator: Adobe Illustrator 16.0.0, SVG Export Plug-In . SVG Version: 6.00 Build 0)  -->
<svg version="1.2" baseProfile="tiny" id="Capa_1" xmlns="http://www.w3.org/2000/svg" xmlns:xlink="http://www.w3.org/1999/xlink" x="0px" y="0px" width="396.85px" height="283.46px" viewBox="0 0 396.85 283.46" xml:space="preserve">
<g>
	<g>
		<path fill="#93BADC" stroke="#1E110C" stroke-width="6.3274" stroke-miterlimit="10" d="M255.86,76.089    c0,0-3.864-8.63-1.805-15.873c2.063-7.241,12.653-9.104,26.144-10.407c13.487-1.302,62.438-8.021,69.604-10.848    c7.164-2.823,7.164-2.823,7.164-2.823s2.562,18.787-9.657,24.727c-12.221,5.938-37.082,8.827-52.941,9.314    C278.51,70.662,255.86,76.089,255.86,76.089z"/>
		<path fill="#93BADC" stroke="#1E110C" stroke-width="6.3274" stroke-miterlimit="10" d="M253.747,87.954    c2.115,6.204,7.839,8.013,7.839,8.013l41.102-1.917c0,0,18.613,1.132,25.669-3.941c7.058-5.072,13.532-16.754,13.174-20.192    c-0.359-3.438-1.312-5.635-10.503-3.966c-9.195,1.669-71.851,8.855-74.779,10.935C253.322,78.967,251.444,81.193,253.747,87.954z"/>
		<path fill="#93BADC" stroke="#1E110C" stroke-width="6.3274" stroke-miterlimit="10" d="M257.661,96.232    c0,0-7.817,10.038-3.009,17.225c4.806,7.188,7.147,10.65,14.797,11.527c7.651,0.877,40.479-5.228,40.479-5.228    s10.1-5.567,12.536-10.69c2.435-5.124,2.158-15.5,2.158-15.5s-34.601,1.075-46.029,1.606c-11.433,0.534-21.32,0.263-21.32,0.263"/>
	</g>
	<path fill="none" stroke="#1E110C" stroke-width="6" stroke-miterlimit="10" d="M130.75,89.655"/>
	<g>
		<path fill="#93BADC" stroke="#1E110C" stroke-width="6.3274" stroke-miterlimit="10" d="M143.133,77.626    c0,0,3.865-8.629,1.805-15.872c-2.064-7.241-12.653-9.103-26.143-10.407c-13.487-1.302-62.437-8.02-69.603-10.848    c-7.165-2.823-7.165-2.823-7.165-2.823s-2.561,18.787,9.658,24.727c12.218,5.938,37.082,8.827,52.941,9.314    C120.484,72.201,143.133,77.626,143.133,77.626z"/>
		<path fill="#93BADC" stroke="#1E110C" stroke-width="6.3274" stroke-miterlimit="10" d="M145.246,89.491    c-2.114,6.204-7.837,8.013-7.837,8.013l-41.103-1.917c0,0-18.613,1.132-25.669-3.94c-7.058-5.072-13.531-16.755-13.172-20.193    c0.358-3.438,1.312-5.635,10.503-3.965c9.193,1.669,71.85,8.855,74.779,10.934C145.673,80.504,147.548,82.731,145.246,89.491z"/>
		<path fill="#93BADC" stroke="#1E110C" stroke-width="6.3274" stroke-miterlimit="10" d="M141.333,97.77    c0,0,7.815,10.038,3.008,17.225c-4.806,7.188-7.147,10.649-14.799,11.527c-7.65,0.878-40.478-5.228-40.478-5.228    s-10.099-5.567-12.534-10.689c-2.436-5.125-2.158-15.5-2.158-15.5s34.599,1.075,46.027,1.605    c11.432,0.535,21.32,0.264,21.32,0.264"/>
	</g>
	<path fill="#146AB0" stroke="#1E110C" stroke-width="6" stroke-miterlimit="10" d="M139.843,7.842c0,0,10.057-1.167,28.246,3.357   c18.188,4.526,29.975,12.684,29.975,12.684s13.746-9.462,28.771-13.165c15.026-3.701,30.052-3.78,30.052-3.78v116.084   c0,0-14.633,0-28.866,3.29c-14.235,3.292-29.008,14.71-29.008,14.71s-11.324-9.362-28.327-13.064   c-17.002-3.703-30.842-4.524-30.842-4.524V7.842z"/>
	<line fill="none" stroke="#1E110C" stroke-width="6" stroke-miterlimit="10" x1="199.084" y1="141.023" x2="199.084" y2="110.79"/>
	<path fill="#93BADC" stroke="#1E110C" stroke-width="6" stroke-miterlimit="10" d="M172.281,53.476l25.782,36.179l24.024-36.581   c0,0-16.486-9.563-24.902-9.287C188.77,44.065,172.281,53.476,172.281,53.476z"/>
	<circle fill="#FFFFFF" stroke="#1E110C" stroke-width="6" stroke-miterlimit="10" cx="162.594" cy="57.24" r="27.679"/>
	<circle fill="#FFFFFF" stroke="#1E110C" stroke-width="6" stroke-miterlimit="10" cx="233.437" cy="57.24" r="27.678"/>
	<circle fill="#93BADC" stroke="#1E110C" stroke-width="6" stroke-miterlimit="10" cx="233.357" cy="57.642" r="9.688"/>
	<circle fill="#93BADC" stroke="#1E110C" stroke-width="6" stroke-miterlimit="10" cx="162.594" cy="55.409" r="9.688"/>
	<line fill="none" stroke="#1E110C" stroke-width="6" stroke-miterlimit="10" x1="198.063" y1="34.298" x2="198.063" y2="23.819"/>
	<g>
		<path fill="#010202" stroke="#010202" stroke-width="2" stroke-miterlimit="10" d="M87.483,230.464h-0.006    c0,0.017,0.006,0.031,0.006,0.048v26.384c0,10.049-10.313,18.225-22.989,18.225h-4.646c-0.034,0.003-0.063,0.016-0.098,0.016    H39.421c-1.54,0-2.198-1.843-0.952-2.703c2.229-1.539,3.05-3.127,3.354-7.086v-47.255v-0.61V183.57    c-0.304-3.959-1.126-5.547-3.354-7.085c-1.246-0.86-0.588-2.703,0.952-2.703H59.75c0.022,0,0.04,0.009,0.061,0.01h2.248    c12.676,0,22.989,8.154,22.989,18.177v13.144c0,4.659-1.993,8.782-5.656,11.998C84.335,220.335,87.483,225.12,87.483,230.464z     M62.06,184.186h-7.329v32.282l10.502-3.873c0.167-0.073,0.319-0.162,0.498-0.225c4.314-1.518,6.411-3.893,6.411-7.258v-13.144    C72.142,187.677,67.619,184.186,62.06,184.186z M74.582,230.464h-0.006c0-3.408-3.359-6.263-7.843-6.99l-12.002,4.426v36.832    h9.763c5.559,0,10.082-3.516,10.082-7.836v-26.384C74.576,230.495,74.582,230.48,74.582,230.464z"/>
		<path fill="#010202" stroke="#010202" stroke-width="2" stroke-miterlimit="10" d="M161.827,176.518    c-2.821,1.933-3.648,3.959-3.907,10.724v69.22c0,10.304-10.32,18.687-23.006,18.687h-8.68c-12.686,0-23.008-8.383-23.008-18.687    v-69.235c-0.259-6.752-1.088-8.777-3.906-10.708c-1.25-0.856-0.601-2.701,0.939-2.706l9.797-0.03l1.664-0.005l7.367-0.023    c1.54-0.005,2.207,1.835,0.965,2.699c-3.599,2.506-3.93,5.108-3.869,17.771c0,0.023-0.037,0.042-0.05,0.063v62.174    c0,4.572,4.531,8.293,10.101,8.293h8.68c5.568,0,10.099-3.721,10.099-8.293v-62.175c-0.013-0.021-0.05-0.039-0.05-0.062    c0.061-12.663-0.269-15.266-3.869-17.771c-1.242-0.864-0.575-2.704,0.965-2.699l7.368,0.023l1.664,0.005l9.797,0.03    C162.427,173.816,163.077,175.661,161.827,176.518z"/>
		<path fill="#010202" stroke="#010202" stroke-width="2" stroke-miterlimit="10" d="M227.515,188.845v65.769    c0.008,0.016,0.039,0.028,0.039,0.045c0,12.664-0.074,15.266,3.342,17.759c1.18,0.86,0.557,2.703-0.899,2.703h-9.269h-1.574    h-6.969c-1.457,0-2.079-1.843-0.9-2.703c2.748-2.006,3.236-4.093,3.323-11.421v-25.464l-22.914,8.45l-0.027-0.047v10.719    c0,0.002,0.003,0.003,0.003,0.004c0,12.664-0.074,15.266,3.33,17.759c1.175,0.86,0.554,2.703-0.897,2.703h-9.234h-1.568h-6.944    c-1.451,0-2.072-1.843-0.897-2.703c2.649-1.94,3.189-3.97,3.3-10.734v-71.949c-0.12-8.829-0.779-11.084-3.913-13.248    c-1.246-0.86-0.588-2.703,0.952-2.703h9.798h1.664h7.368c1.54,0,2.198,1.843,0.952,2.703c-3.023,2.087-3.754,4.273-3.913,12.349    v43.727l22.94-8.46v-34.378c-0.12-8.82-0.78-11.074-3.913-13.237c-1.246-0.86-0.588-2.703,0.952-2.703h9.798h1.663h7.367    c1.54,0,2.198,1.843,0.952,2.703C228.402,178.573,227.673,180.761,227.515,188.845z"/>
		<path fill="#010202" stroke="#010202" stroke-width="2" stroke-miterlimit="10" d="M298.005,191.926v65.069    c0,9.999-10.32,18.134-23.007,18.134h-8.733c-12.687,0-23.007-8.135-23.007-18.134v-65.069c0-9.999,10.32-18.134,23.007-18.134    h8.733C287.685,173.792,298.005,181.927,298.005,191.926z M285.099,191.926c0-4.269-4.531-7.74-10.101-7.74h-8.733    c-5.569,0-10.1,3.472-10.1,7.74v65.069c0,4.268,4.53,7.74,10.1,7.74h8.733c5.569,0,10.101-3.473,10.101-7.74V191.926z"/>
		<path fill="#010202" stroke="#010202" stroke-width="2" stroke-miterlimit="10" d="M361.303,203.852    c1.246,0.785,0.588,2.465-0.952,2.465h-7.801h-9.414c-1.54,0-2.198-1.68-0.952-2.465c2.538-1.598,3.911-3.282,4.015-8.118v-3.806    c0-4.196-3.101-7.742-6.772-7.742h-5.968c-3.671,0-6.771,3.546-6.771,7.742v20.355c0,4.198,3.101,7.744,6.771,7.744h5.968    c10.852,0,19.679,8.136,19.679,18.136v18.848c0,10.001-8.827,18.137-19.679,18.137h-5.968c-10.206,0-18.618-7.199-19.582-16.377    h-0.097c0-5.303-1.384-7.05-4.024-8.712c-1.246-0.784-0.588-2.465,0.952-2.465h9.414h9.414c1.54,0,2.198,1.681,0.952,2.465    c-2.464,1.551-3.643,0.709-3.79,7.198c0.119,4.088,3.162,7.497,6.761,7.497h5.968c3.672,0,6.772-3.546,6.772-7.743v-18.848    c0-4.196-3.101-7.743-6.772-7.743h-5.968c-10.851,0-19.679-8.136-19.679-18.137v-20.355c0-10,8.828-18.136,19.679-18.136h5.968    c10.852,0,19.679,8.136,19.679,18.136v3.212h0.005c0,0.515-0.002,0.991-0.005,1.435v4.091c0,0.023-0.008,0.045-0.008,0.067    C359.168,202.842,359.568,202.761,361.303,203.852z"/>
	</g>
</g>
</svg>